<?xml version="1.0" encoding="UTF-8"?>
<svg version="1.1" xmlns="http://www.w3.org/2000/svg" width="512" height="512">
<path d="M0 0 C1.45108658 0.00273422 1.45108658 0.00273422 2.93148804 0.00552368 C17.26440977 0.05095174 31.21023917 0.55983928 45.3125 3.3125 C46.65803955 3.55395752 46.65803955 3.55395752 48.03076172 3.80029297 C107.84088904 14.62287989 165.35495829 48.68064457 202.3125 97.3125 C202.72918945 97.85277832 203.14587891 98.39305664 203.57519531 98.94970703 C211.2584873 108.9447116 218.00092968 119.40459036 224.3125 130.3125 C224.70679199 130.98974121 225.10108398 131.66698242 225.50732422 132.36474609 C238.68961173 155.2833756 247.29510918 180.85822563 252.625 206.6875 C252.77243652 207.39817627 252.91987305 208.10885254 253.07177734 208.84106445 C256.05713787 224.48358366 256.6873098 240.11919606 256.625 256 C256.62226578 257.45108658 256.62226578 257.45108658 256.61947632 258.93148804 C256.57404826 273.26440977 256.06516072 287.21023917 253.3125 301.3125 C253.15152832 302.20952637 252.99055664 303.10655273 252.82470703 304.03076172 C242.00212011 363.84088904 207.94435543 421.35495829 159.3125 458.3125 C158.77222168 458.72918945 158.23194336 459.14587891 157.67529297 459.57519531 C147.6802884 467.2584873 137.22040964 474.00092968 126.3125 480.3125 C125.63525879 480.70679199 124.95801758 481.10108398 124.26025391 481.50732422 C101.3416244 494.68961173 75.76677437 503.29510918 49.9375 508.625 C49.22682373 508.77243652 48.51614746 508.91987305 47.78393555 509.07177734 C32.14141634 512.05713787 16.50580394 512.6873098 0.625 512.625 C-0.34239105 512.62317719 -1.3097821 512.62135437 -2.30648804 512.61947632 C-16.63940977 512.57404826 -30.58523917 512.06516072 -44.6875 509.3125 C-45.58452637 509.15152832 -46.48155273 508.99055664 -47.40576172 508.82470703 C-107.21588904 498.00212011 -164.72995829 463.94435543 -201.6875 415.3125 C-202.10418945 414.77222168 -202.52087891 414.23194336 -202.95019531 413.67529297 C-210.6334873 403.6802884 -217.37592968 393.22040964 -223.6875 382.3125 C-224.08179199 381.63525879 -224.47608398 380.95801758 -224.88232422 380.26025391 C-238.06461173 357.3416244 -246.67010918 331.76677437 -252 305.9375 C-252.14743652 305.22682373 -252.29487305 304.51614746 -252.44677734 303.78393555 C-255.43213787 288.14141634 -256.0623098 272.50580394 -256 256.625 C-255.99817719 255.65760895 -255.99635437 254.6902179 -255.99447632 253.69351196 C-255.94904826 239.36059023 -255.44016072 225.41476083 -252.6875 211.3125 C-252.44604248 209.96696045 -252.44604248 209.96696045 -252.19970703 208.59423828 C-241.37712011 148.78411096 -207.31935543 91.27004171 -158.6875 54.3125 C-158.14722168 53.89581055 -157.60694336 53.47912109 -157.05029297 53.04980469 C-147.0552884 45.3665127 -136.59540964 38.62407032 -125.6875 32.3125 C-125.01025879 31.91820801 -124.33301758 31.52391602 -123.63525391 31.11767578 C-100.7166244 17.93538827 -75.14177437 9.32989082 -49.3125 4 C-48.60182373 3.85256348 -47.89114746 3.70512695 -47.15893555 3.55322266 C-31.51641634 0.56786213 -15.88080394 -0.0623098 0 0 Z " fill="#DDF6CC" transform="translate(255.6875,-0.3125)"/>
<path d="M0 0 C2.5072159 1.95005681 4.92995061 3.96545684 7.3359375 6.0390625 C8.76873047 7.27076172 8.76873047 7.27076172 10.23046875 8.52734375 C35.88213714 31.05591219 54.94868709 64.57051707 57.3359375 99.0390625 C59.17592635 139.33313022 51.22012295 175.84557228 24.3359375 207.0390625 C23.10423828 208.47185547 23.10423828 208.47185547 21.84765625 209.93359375 C-0.0714147 234.89127096 -29.85455099 251.0711735 -62.6640625 256.0390625 C-63.75734863 256.21107178 -64.85063477 256.38308105 -65.97705078 256.56030273 C-102.83831392 261.34675069 -139.49045707 252.0407486 -169.328125 230.078125 C-171.8353409 228.12806819 -174.25807561 226.11266816 -176.6640625 224.0390625 C-177.61925781 223.21792969 -178.57445312 222.39679688 -179.55859375 221.55078125 C-196.04172331 207.07447871 -207.50744599 189.85835238 -216.6640625 170.0390625 C-217.13714844 169.04132813 -217.61023438 168.04359375 -218.09765625 167.015625 C-231.80181332 135.16733473 -230.25628647 94.76993878 -217.80029297 62.82373047 C-211.85740971 48.06257847 -204.07419279 35.11784755 -193.6640625 23.0390625 C-192.84292969 22.08386719 -192.02179688 21.12867188 -191.17578125 20.14453125 C-169.2567103 -4.81314596 -139.47357401 -20.9930485 -106.6640625 -25.9609375 C-105.57077637 -26.13294678 -104.47749023 -26.30495605 -103.35107422 -26.48217773 C-66.48981108 -31.26862569 -29.83766793 -21.9626236 0 0 Z " fill="#F1FEDA" transform="translate(340.6640625,140.9609375)"/>
<path d="M0 0 C1.45108658 0.00273422 1.45108658 0.00273422 2.93148804 0.00552368 C17.26440977 0.05095174 31.21023917 0.55983928 45.3125 3.3125 C46.65803955 3.55395752 46.65803955 3.55395752 48.03076172 3.80029297 C107.84088904 14.62287989 165.35495829 48.68064457 202.3125 97.3125 C202.72918945 97.85277832 203.14587891 98.39305664 203.57519531 98.94970703 C211.2584873 108.9447116 218.00092968 119.40459036 224.3125 130.3125 C224.70679199 130.98974121 225.10108398 131.66698242 225.50732422 132.36474609 C238.68961173 155.2833756 247.29510918 180.85822563 252.625 206.6875 C252.77243652 207.39817627 252.91987305 208.10885254 253.07177734 208.84106445 C256.05713787 224.48358366 256.6873098 240.11919606 256.625 256 C256.62226578 257.45108658 256.62226578 257.45108658 256.61947632 258.93148804 C256.57404826 273.26440977 256.06516072 287.21023917 253.3125 301.3125 C253.15152832 302.20952637 252.99055664 303.10655273 252.82470703 304.03076172 C242.00212011 363.84088904 207.94435543 421.35495829 159.3125 458.3125 C158.77222168 458.72918945 158.23194336 459.14587891 157.67529297 459.57519531 C147.6802884 467.2584873 137.22040964 474.00092968 126.3125 480.3125 C125.63525879 480.70679199 124.95801758 481.10108398 124.26025391 481.50732422 C101.3416244 494.68961173 75.76677437 503.29510918 49.9375 508.625 C49.22682373 508.77243652 48.51614746 508.91987305 47.78393555 509.07177734 C32.14141634 512.05713787 16.50580394 512.6873098 0.625 512.625 C-0.34239105 512.62317719 -1.3097821 512.62135437 -2.30648804 512.61947632 C-16.63940977 512.57404826 -30.58523917 512.06516072 -44.6875 509.3125 C-45.58452637 509.15152832 -46.48155273 508.99055664 -47.40576172 508.82470703 C-107.21588904 498.00212011 -164.72995829 463.94435543 -201.6875 415.3125 C-202.10418945 414.77222168 -202.52087891 414.23194336 -202.95019531 413.67529297 C-210.6334873 403.6802884 -217.37592968 393.22040964 -223.6875 382.3125 C-224.08179199 381.63525879 -224.47608398 380.95801758 -224.88232422 380.26025391 C-238.06461173 357.3416244 -246.67010918 331.76677437 -252 305.9375 C-252.14743652 305.22682373 -252.29487305 304.51614746 -252.44677734 303.78393555 C-255.43213787 288.14141634 -256.0623098 272.50580394 -256 256.625 C-255.99817719 255.65760895 -255.99635437 254.6902179 -255.99447632 253.69351196 C-255.94904826 239.36059023 -255.44016072 225.41476083 -252.6875 211.3125 C-252.44604248 209.96696045 -252.44604248 209.96696045 -252.19970703 208.59423828 C-241.37712011 148.78411096 -207.31935543 91.27004171 -158.6875 54.3125 C-158.14722168 53.89581055 -157.60694336 53.47912109 -157.05029297 53.04980469 C-147.0552884 45.3665127 -136.59540964 38.62407032 -125.6875 32.3125 C-125.01025879 31.91820801 -124.33301758 31.52391602 -123.63525391 31.11767578 C-100.7166244 17.93538827 -75.14177437 9.32989082 -49.3125 4 C-48.60182373 3.85256348 -47.89114746 3.70512695 -47.15893555 3.55322266 C-31.51641634 0.56786213 -15.88080394 -0.0623098 0 0 Z M-162.6875 93.3125 C-163.4196875 94.00214844 -164.151875 94.69179687 -164.90625 95.40234375 C-204.64809661 133.96139731 -228.55392641 192.16606504 -229.9296875 246.9921875 C-230.25490203 270.09655899 -228.61641803 291.95119078 -222.6875 314.3125 C-222.46046387 315.17117676 -222.23342773 316.02985352 -221.99951172 316.91455078 C-214.70134078 343.93583527 -202.50132152 369.89811212 -185.6875 392.3125 C-185.01702637 393.21403809 -185.01702637 393.21403809 -184.33300781 394.13378906 C-177.6627668 403.04185031 -170.38110152 411.28022197 -162.6875 419.3125 C-161.97851562 420.06273437 -161.26953125 420.81296875 -160.5390625 421.5859375 C-122.05821473 461.32330275 -63.74844976 485.18107151 -9.0078125 486.5546875 C14.09655899 486.87990203 35.95119078 485.24141803 58.3125 479.3125 C59.60051514 478.9719458 59.60051514 478.9719458 60.91455078 478.62451172 C87.93583527 471.32634078 113.89811212 459.12632152 136.3125 442.3125 C136.91352539 441.86551758 137.51455078 441.41853516 138.13378906 440.95800781 C147.04185031 434.2877668 155.28022197 427.00610152 163.3125 419.3125 C164.06273437 418.60351562 164.81296875 417.89453125 165.5859375 417.1640625 C199.08623473 384.72306321 220.10084951 338.61364704 228 293.1875 C228.17946167 292.167771 228.17946167 292.167771 228.36254883 291.12744141 C237.97817876 231.92751528 222.36930254 170.61687008 187.65527344 122.17431641 C180.19939964 111.94974093 171.98181798 102.51153786 163.3125 93.3125 C162.62285156 92.5803125 161.93320312 91.848125 161.22265625 91.09375 C128.71301189 57.58687729 82.68190045 36.53601907 37.1875 28.625 C36.50768066 28.50535889 35.82786133 28.38571777 35.12744141 28.26245117 C-38.37452061 16.32379327 -109.4488815 43.13958847 -162.6875 93.3125 Z " fill="#619F38" transform="translate(255.6875,-0.3125)"/>
<path d="M0 0 C4.18521541 1.7761829 8.03236692 4.0563458 11.9375 6.375 C13.04270996 7.01332764 14.14791992 7.65165527 15.28662109 8.30932617 C18.53420548 10.19001613 21.76798009 12.09272196 25 14 C26.62816661 14.94788619 28.25698854 15.89464843 29.88671875 16.83984375 C33.28653468 18.81775889 36.66937429 20.82247742 40.04589844 22.83984375 C42.0881784 24.05235179 44.14069576 25.24603165 46.1953125 26.4375 C47.54698277 27.22898265 48.89854946 28.02064222 50.25 28.8125 C50.85859863 29.16159424 51.46719727 29.51068848 52.09423828 29.87036133 C56.46690976 32.45320515 60.68027159 35.36054319 63 40 C63.40799097 45.30388261 62.74433176 48.45786305 60 53 C57.77734375 54.80859375 57.77734375 54.80859375 54.9375 56.4375 C54.39222656 56.7562207 53.84695312 57.07494141 53.28515625 57.40332031 C51.98319672 58.16073664 50.67659584 58.91020321 49.36669922 59.65380859 C46.60026715 61.22737023 43.84907673 62.82611818 41.09765625 64.42578125 C36.63921715 67.01470395 32.17075277 69.58512182 27.6953125 72.14453125 C23.41222456 74.59790867 19.15883847 77.09156414 14.9296875 79.63671875 C13.98931641 80.19520508 13.04894531 80.75369141 12.08007812 81.32910156 C10.32832565 82.37066703 8.58421642 83.42524161 6.84960938 84.49511719 C1.59521904 87.59061043 -1.88742237 88.77225285 -8 88 C-12.80897209 85.9501324 -15.3527289 81.90193122 -17.25 77.1875 C-24.11986075 55.18617871 -25.68105691 27.73404183 -15.0078125 6.59765625 C-11.26793069 0.66892888 -6.86607752 -1.20016246 0 0 Z " fill="#CDE4A7" transform="translate(169,212)"/>
<path d="M0 0 C4.65570751 2.05717309 7.67551226 5.11428034 9.80859375 9.76171875 C17.81969786 31.55358225 17.65033144 58.20512273 9.109375 79.8203125 C7.19281939 83.58593937 4.82202403 86.08898799 1 88 C-7.03256038 89.09577124 -12.16726222 85.64479648 -18.9375 81.625 C-20.04270996 80.98667236 -21.14791992 80.34834473 -22.28662109 79.69067383 C-25.53420548 77.80998387 -28.76798009 75.90727804 -32 74 C-33.62816661 73.05211381 -35.25698854 72.10535157 -36.88671875 71.16015625 C-40.28471425 69.18314069 -43.66656385 67.18062665 -47.04150391 65.16455078 C-49.09838861 63.94149667 -51.16370877 62.73362574 -53.23046875 61.52734375 C-54.59128448 60.72679813 -55.95196692 59.92602588 -57.3125 59.125 C-57.92947754 58.76752686 -58.54645508 58.41005371 -59.18212891 58.04174805 C-63.84550925 55.27649801 -68.18585521 52.29125563 -70 47 C-70.46466077 41.88873157 -69.9920146 39.14328978 -67 35 C-64.77734375 33.2890625 -64.77734375 33.2890625 -61.9375 31.625 C-61.39222656 31.30176758 -60.84695313 30.97853516 -60.28515625 30.64550781 C-58.19819538 29.41600608 -56.09926966 28.20836855 -54 27 C-52.03239752 25.85703688 -50.06496314 24.71378434 -48.09765625 23.5703125 C-43.63969345 20.98421076 -39.17238105 18.41517929 -34.69921875 15.85546875 C-30.40696967 13.39648996 -26.14007662 10.9019909 -21.89453125 8.36328125 C-20.94964844 7.80479492 -20.00476563 7.24630859 -19.03125 6.67089844 C-17.26760128 5.62753298 -15.51059618 4.5728229 -13.76171875 3.50488281 C-8.99100309 0.70577806 -5.69695207 -0.72113317 0 0 Z " fill="#CDE4A7" transform="translate(350,212)"/>
<path d="M0 0 C3.61789567 2.96009646 5.55424955 4.63507841 6.13095093 9.39280701 C6.1345311 11.24882286 6.1345311 11.24882286 6.13818359 13.14233398 C6.14344055 13.82739014 6.14869751 14.51244629 6.15411377 15.21826172 C6.16729318 17.47777257 6.15858256 19.736576 6.1484375 21.99609375 C6.15045907 23.57023758 6.15337121 25.14438049 6.15713501 26.71852112 C6.16155575 30.01629561 6.15513639 33.31382615 6.14111328 36.61157227 C6.1240354 40.8328596 6.13385497 45.05357411 6.15183067 49.27484035 C6.16268739 52.52541901 6.15921331 55.77586259 6.1514473 59.02644539 C6.14944977 60.58253103 6.15188884 62.13862905 6.15888596 63.69470024 C6.16653021 65.87288614 6.15485531 68.05015373 6.13818359 70.22827148 C6.13579681 71.46641098 6.13341003 72.70455048 6.13095093 73.98020935 C5.58537169 78.66304318 3.74707975 81.19594426 0.5625 84.5625 C-3.12734905 86.77640943 -6.09883421 86.96961657 -10.25 86.25 C-13.95780925 84.71739892 -17.32022998 82.69637806 -20.75 80.625 C-22.23765869 79.75452026 -22.23765869 79.75452026 -23.75537109 78.86645508 C-25.85510583 77.63603622 -27.95057006 76.39830447 -30.04199219 75.15380859 C-33.22653339 73.26392638 -36.42623921 71.40299795 -39.6328125 69.55078125 C-44.65730034 66.6472239 -49.66400983 63.71497497 -54.66259766 60.76708984 C-56.9467898 59.42778337 -59.24152818 58.11011657 -61.54296875 56.80078125 C-62.7165236 56.11783623 -63.8897403 55.43430956 -65.0625 54.75 C-66.49529297 53.93015625 -66.49529297 53.93015625 -67.95703125 53.09375 C-71.73416664 50.05659854 -73.03000311 46.56998132 -73.8125 41.875 C-73.02044714 36.77065937 -70.64092678 34.03302538 -67.25 30.25 C-66.36248047 29.25806641 -66.36248047 29.25806641 -65.45703125 28.24609375 C-53.5290239 15.67864683 -18.37585369 -9.89469045 0 0 Z " fill="#CDE4A7" transform="translate(244.25,150.75)"/>
<path d="M0 0 C1.86447484 1.07568447 3.71947886 2.16789568 5.56640625 3.2734375 C6.56269043 3.85375732 7.55897461 4.43407715 8.58544922 5.03198242 C10.69564631 6.26312303 12.80201714 7.5008421 14.90478516 8.74462891 C18.0982612 10.63034193 21.30435138 12.49243986 24.515625 14.34765625 C29.53759192 17.25172425 34.54418748 20.18068947 39.54150391 23.12695312 C41.82933386 24.47227831 44.12435128 25.80415072 46.421875 27.1328125 C47.59562106 27.82455631 48.76885789 28.51716546 49.94140625 29.2109375 C51.37419922 30.04818359 51.37419922 30.04818359 52.8359375 30.90234375 C55.46441834 32.90392967 56.70014187 34.6842153 58.12890625 37.6484375 C58.73712106 42.34038029 58.2130244 45.67754558 55.640625 49.703125 C43.08606758 65.858602 24.42089481 76.6776462 5.12890625 82.6484375 C4.10152344 82.968125 3.07414062 83.2878125 2.015625 83.6171875 C-9.40345474 86.95483462 -9.40345474 86.95483462 -15.05859375 83.9609375 C-18.88579367 80.81412867 -20.66216448 78.37340532 -21.26550293 73.3921051 C-21.27392212 72.15999802 -21.28234131 70.92789093 -21.29101562 69.65844727 C-21.29948517 68.97485138 -21.30795471 68.29125549 -21.31668091 67.58694458 C-21.33999058 65.33771929 -21.34107461 63.08918045 -21.33984375 60.83984375 C-21.3469488 59.26952341 -21.35464831 57.69920565 -21.36291504 56.12889099 C-21.37634579 52.84130634 -21.37793493 49.55396179 -21.37207031 46.26635742 C-21.3661741 42.06175108 -21.39676756 37.8582994 -21.43718719 33.65391636 C-21.46308724 30.4118585 -21.46593961 27.17007788 -21.46229553 23.92793083 C-21.46398451 22.37822504 -21.4736058 20.82850614 -21.49143982 19.27890205 C-21.51367901 17.10776479 -21.50390698 14.93895432 -21.48632812 12.76782227 C-21.48838257 11.53491959 -21.49043701 10.30201691 -21.49255371 9.03175354 C-20.58563482 4.09435868 -18.07160529 1.26214597 -13.99609375 -1.7265625 C-8.52141603 -3.33676183 -4.94436888 -2.64761134 0 0 Z " fill="#CDE4A7" transform="translate(282.87109375,277.3515625)"/>
<path d="M0 0 C3.31676072 2.09614165 6.22899963 4.45799925 8 8 C8.10741651 10.21981279 8.14891299 12.4429066 8.16113281 14.6652832 C8.16858017 15.69242935 8.16858017 15.69242935 8.17617798 16.74032593 C8.1908077 19.01048786 8.19760348 21.28057988 8.203125 23.55078125 C8.2088765 25.12778221 8.21463424 26.70478314 8.22039795 28.28178406 C8.23091073 31.59142381 8.23675134 34.90103925 8.24023438 38.21069336 C8.24571481 42.44767524 8.26973177 46.68433505 8.29820633 50.92121601 C8.31684993 54.18034293 8.32203926 57.43939261 8.32357025 60.69856834 C8.32659425 62.26025335 8.33461428 63.82193708 8.34775543 65.38356972 C8.36484986 67.57147158 8.36292768 69.75859127 8.35644531 71.9465332 C8.36191376 73.81279106 8.36191376 73.81279106 8.36749268 75.7167511 C7.81039364 80.69397899 6.0311939 83.13285968 2.25 86.3125 C-3.8057774 89.45684596 -9.65806506 87.89174943 -15.9375 86 C-17.04013184 85.66887207 -17.04013184 85.66887207 -18.16503906 85.33105469 C-34.34475876 80.21912102 -48.51593188 71.19047044 -61.0625 59.875 C-61.5989917 59.39643555 -62.1354834 58.91787109 -62.68823242 58.42480469 C-67.23753935 54.17733722 -70.6125693 49.76044371 -71.5 43.4375 C-70.90893616 39.37393612 -69.81693352 36.91518858 -67 34 C-63.28702253 31.395276 -59.34792109 29.24327403 -55.375 27.0625 C-53.63133037 26.08203204 -51.88767349 25.10154056 -50.14479065 24.11967468 C-48.32815251 23.09841053 -46.50825928 22.0831317 -44.68798828 21.06835938 C-38.69135279 17.71632368 -32.75644505 14.25675449 -26.8125 10.8125 C-23.73677398 9.03627626 -20.66036817 7.26133521 -17.58056641 5.4921875 C-15.99780016 4.57696827 -14.42052062 3.65207515 -12.85302734 2.7109375 C-8.38817909 0.04931488 -5.12040717 -1.36276981 0 0 Z " fill="#CDE4A7" transform="translate(242,275)"/>
<path d="M0 0 C12.34360694 6.54578348 26.63306504 16.96430302 33.77954102 29.21777344 C34.44129937 34.51184029 33.52526975 37.69859435 30.77954102 42.21777344 C28.12182617 44.27905273 28.12182617 44.27905273 24.94360352 46.10449219 C24.37122955 46.43897873 23.79885559 46.77346527 23.20913696 47.11808777 C21.40746375 48.16633038 19.59429904 49.19238925 17.77954102 50.21777344 C16.66417969 50.86439941 15.54881836 51.51102539 14.3996582 52.17724609 C10.99458599 54.14606739 7.57728096 56.09241912 4.15454102 58.03027344 C1.69943809 59.42101257 -0.75510024 60.81273602 -3.20874023 62.20605469 C-3.80919662 62.54690094 -4.40965302 62.88774719 -5.02830505 63.23892212 C-8.72117864 65.34245011 -12.3779326 67.49722109 -16.01342773 69.69824219 C-16.87178223 70.21346436 -17.73013672 70.72868652 -18.61450195 71.25952148 C-20.17458332 72.20020047 -21.72763576 73.15268504 -23.27172852 74.11938477 C-27.7463887 76.80136268 -30.85480119 77.86795719 -36.22045898 77.21777344 C-40.67216441 74.906311 -43.04382386 72.70540358 -45.22045898 68.21777344 C-45.61486816 64.96144104 -45.61486816 64.96144104 -45.64038086 61.2277832 C-45.6488504 60.54418732 -45.65731995 59.86059143 -45.66604614 59.15628052 C-45.68935581 56.90705523 -45.69043985 54.65851639 -45.68920898 52.40917969 C-45.69631404 50.83885934 -45.70401354 49.26854159 -45.71228027 47.69822693 C-45.72571102 44.41064228 -45.72730017 41.12329773 -45.72143555 37.83569336 C-45.71553934 33.63108702 -45.74613279 29.42763534 -45.78655243 25.2232523 C-45.81245248 21.98119444 -45.81530484 18.73941382 -45.81166077 15.49726677 C-45.81334975 13.94756098 -45.82297103 12.39784208 -45.84080505 10.84823799 C-45.86304424 8.67710073 -45.85327221 6.50829026 -45.83569336 4.3371582 C-45.8377478 3.10425552 -45.83980225 1.87135284 -45.84191895 0.60108948 C-45.014393 -3.90407894 -43.40262338 -5.53372016 -40.22045898 -8.78222656 C-29.65885012 -16.02154293 -10.08345952 -5.1198351 0 0 Z " fill="#CDE4A7" transform="translate(307.220458984375,159.7822265625)"/>
</svg>
